# xmcd
#
# Track frame offsets:
# 182
# 21942
# 44972
# 58960
# 79107
# 97230
# 113387
# 129402
# 141907
# 164607
# 179195
# 194582
#
# Disc length: 2800 seconds
#
#
# Revision: 1
# Processed by: cddbd v1.5.1PL0 Copyright (c) Steve Scherf et al.
# Submitted via: FreeRIP 2.53 
#
DISCID=bc0aee0c
DTITLE=Armstrong Louis - Louis Armstrong 3 Mack The Knife
DYEAR=1961
DGENRE=Jazz
TTITLE0=The Gypsy
TTITLE1=Now You Has Jazz
TTITLE2=High Scoiety Calypso
TTITLE3=Indiana
TTITLE4=Ole Miss Blues
TTITLE5=AfterYou've Gone
TTITLE6=C'est Si Bon
TTITLE7=When It's Sleepy Time Down South
TTITLE8=La Vie En Rose
TTITLE9=The Bucket's Got A Hole In It
TTITLE10=On The Sunny Side Of The Strett
TTITLE11=Black And Blue
EXTD=
EXTT0=
EXTT1=
EXTT2=
EXTT3=
EXTT4=
EXTT5=
EXTT6=
EXTT7=
EXTT8=
EXTT9=
EXTT10=
EXTT11=
PLAYORDER=
